<svg xmlns="http://www.w3.org/2000/svg" width="360" height="62.38" viewBox="0 0 360 62.38">
  <defs>
    <style>
      .cls-1 {
        fill: #f6bc30;
        fill-rule: evenodd;
      }
    </style>
  </defs>
  <path id="action" class="cls-1" d="M273,1560h22l7,58H283l-1-7H263l-3,7H240Zm7.3,17.49h-0.13L270,1597h12Zm91.555,17.96c-2.893,7.67-6.374,13.88-11.9,18.12-5.463,4.25-13.057,6.61-24.309,6.61-11.187,0-31.705-.98-24.95-31.18s27.711-31.19,38.9-31.19c11.121,0,27.859,1.8,25.113,24.9H353.9c0.408-4.16-.465-10.2-7.6-10.2-7.523,0-13.339,4.65-15.986,16.49s0.957,16.49,7.7,16.49c5.822,0,9.965-3.02,13.039-10.04h20.8ZM397,1575H380l4-15h53l-4,15H416l-10,43H388Zm45-15h19l-13,58H430Zm60.067-2.19c11.187,0,31.705.98,24.95,31.19s-27.711,31.18-38.9,31.18-31.7-.98-24.95-31.18S490.881,1557.81,502.067,1557.81Zm-10.661,47.68c7.523,0,13.339-4.66,15.986-16.49s-1.088-16.49-8.611-16.49-13.339,4.65-15.986,16.49S483.883,1605.49,491.406,1605.49ZM542,1560h21l11.579,32.18h0.2L582,1560h18l-13,58H567l-12.9-32.51h-0.131L547,1618H529Z" transform="translate(-240 -1557.81)"/>
</svg>
