<svg xmlns="http://www.w3.org/2000/svg" width="319.969" height="22.47" viewBox="0 0 319.969 22.47">
  <defs>
    <style>
      .cls-1 {
        fill: #f6bc30;
        fill-rule: evenodd;
      }
    </style>
  </defs>
  <path id="UNICEF_HOPE_RING" data-name="UNICEF HOPE RING" class="cls-1" d="M390.566,1523.66l-1.415,7.72h-6.758l1.422-7.72h-7.426l-4.123,21.14h7.345l1.633-7.94H388l-1.633,7.94h7.321l4.3-21.14h-7.426Zm20.821-.48c-7.779,0-11.962,4.12-13.392,11.01-1.428,6.86.842,10.97,8.853,10.97,8.034,0,11.96-4.11,13.39-10.97C421.667,1527.3,419.141,1523.18,411.387,1523.18Zm1.658,10.93-0.025.13c-0.689,3.3-1.989,5.5-5.051,5.5-3.11,0-3.419-2.2-2.729-5.5l0.025-.13c0.69-3.33,1.914-5.5,5-5.5S413.734,1530.78,413.045,1534.11Zm24.1-10.45H424.319l-4.164,21.14H427.5l1.327-6.42h4.336c5.459,0,9.846-2.44,10.892-7.55C444.743,1527.58,443.625,1523.66,437.146,1523.66Zm-0.054,7.41c-0.435,2.17-2.5,2.07-4.363,2.07H429.9l0.867-4.12h3.24C435.817,1529.02,437.5,1529.16,437.092,1531.07Zm29.17-2.05,1.262-5.36H447.947l-4.716,21.14h20.125l1.122-5.45H451.7l0.534-2.62H463.89l1.048-5.06H453.28l0.561-2.65h12.421Zm25.565-5.36H479l-4.14,21.14h7.346l1.48-7.13h3.571l3.214,7.13h8.392l-4.209-8.36a8.172,8.172,0,0,0,4.871-5.95C500.162,1527.4,498.841,1523.66,491.827,1523.66Zm0.4,7.07c-0.435,2.07-2.424,1.94-4.49,1.94H484.7l0.817-3.91h3.469C490.98,1528.76,492.612,1528.89,492.23,1530.73Zm12.423-7.07-4.229,21.14h7.345l4.309-21.14h-7.425Zm25.652,0-2.506,11.26h-0.1l-4.817-11.26h-7.426l-4.591,21.14h7.089l2.4-11.61H520.5l5.025,11.61h7.346l4.182-21.14H530.3ZM560,1531.33c0.279-4.82-2.475-8.15-8.8-8.15-7.4,0-12.344,3.96-13.824,11.11-1.452,7.1,1.709,10.98,8.851,10.98a10.494,10.494,0,0,0,6.658-2.28l-0.129,1.78h4.694l2.473-11.89h-9.793l-1,4.79h2.653a3.941,3.941,0,0,1-3.776,2.23c-3.187,0-4.08-2.25-3.392-5.56l0.026-.13c0.689-3.32,2.5-5.45,5.562-5.45,1.172,0,2.881.82,2.7,2.57H560Zm-268.666-7.67-4.05,21.14h7.426l4.05-21.14H291.33Zm53.388,5.17,1.292-5.17H325.759l-4.051,21.14h20.253l0.964-5.63-12.8-.01,0.539-2.62h11.672l1.051-5.06-11.675-.01,0.565-2.65Zm0.616,15.97h7.429l1.589-7.82,9.241,0.01,1.13-5.49-9.244-.01,0.565-2.65,10.01,0.01,0.884-5.19H349.386Zm-64.805-21.14-1.971,11.03h-0.1l-4.676-11.03h-8.1l-4.051,21.14h6.75l2.723-11.85h0.153l5.224,11.85h6.752l4.725-21.14h-7.426Zm-24.3,0-2.674,12.61c-0.566,2.75-1.959,3.62-4.066,3.62s-3.145-.88-2.579-3.63l2.566-12.6h-6.749l-2.345,12.92c-1.393,6.8,1.322,8.87,7.965,8.88s10.207-2.06,11.6-8.86l3.032-12.94h-6.749Zm52.818,15.91c-3.116,0-3.421-2.2-2.729-5.51l0.027-.13c0.691-3.33,1.918-5.51,5.007-5.51,2.291,0.01,3.092,1.2,3.074,3.18h7.256c0.388-5.43-2.392-8.6-9.2-8.61-7.79,0-11.981,4.12-13.417,11.01s0.836,11,8.856,11c7.013,0.01,10.9-3.12,12.735-8.47l-7.281-.01A4.39,4.39,0,0,1,309.045,1539.57Z" transform="translate(-240.031 -1523)"/>
</svg>
