<svg xmlns="http://www.w3.org/2000/svg" width="445" height="62.378" viewBox="0 0 445 62.378">
  <defs>
    <style>
      .cls-1 {
        fill: #40b87e;
        fill-rule: evenodd;
      }
    </style>
  </defs>
  <path id="promise" class="cls-1" d="M1246,950h38c13.08,0,16.37,7.2,13.46,20.181-2.5,11.185-9.14,19.839-22.22,19.839h-19.75L1251,1008h-18Zm12,26h12c4.64,0,7.38-1.982,8.33-6.227,0.98-4.409-.69-6.773-5.33-6.773h-12Zm151.51-28.188c11.18,0,31.7.98,24.94,31.186s-27.7,31.182-38.88,31.182-31.7-.97-24.94-31.182S1398.33,947.812,1409.51,947.812Zm-10.66,47.678c7.52,0,13.34-4.654,15.98-16.492s-1.08-16.49-8.6-16.49-13.34,4.653-15.98,16.49S1391.33,995.49,1398.85,995.49ZM1449,950h26l0.51,33.734h0.13L1491,950h26l-13,58h-17l9.36-41.493h-0.13L1477,1008h-14l-0.39-41.493h-0.13L1453,1008h-16Zm79,0h18l-13,58h-18Zm32.59,33.407c-8.64-1.714-10.91-8.245-9.09-16.41,3.38-15.1,16.13-19.185,31.3-19.185,20.8,0,27.3,6.86,25.2,19.188h-21c0.53-2.368-.16-3.921-1.68-4.738a10.6,10.6,0,0,0-5.48-1.224c-5.49,0-7.77,1.714-8.32,4.163-0.36,1.634-.01,2.694,1.75,3.021l21.12,4.082c8.91,1.714,13.46,7.1,11.25,16.981-3.18,14.205-13.96,20.895-34.69,20.895-14.19,0-29.72-2.04-25.95-19.18h22c-0.37,1.959.73,2.857,1.84,3.755,1.19,0.817,3.13,1.225,6.01,1.225,5.75,0,7.76-1.96,8.38-4.736,0.38-1.714-.09-3.428-2.46-3.918Zm-251.6-33.554h35.35c19.84,0,23.81,10.448,22.01,18.95-1.66,7.782-6.64,13.186-13.78,16.356l11.9,22.981h-23.73L1332,989h-10l-4.64,19.14h-20.77ZM1325,975h8c5.84,0,11.49.144,12.71-5.548,1.09-5.044-3.53-5.4-9.16-5.4h-9.81Zm297-25h56l-4,15h-35l-1.11,7.045h32.96l-2.95,13.907h-32.97L1634,993h36l-3,15h-57Z" transform="translate(-1233 -947.812)"/>
</svg>
