<svg xmlns="http://www.w3.org/2000/svg" width="367.34" height="56.82" viewBox="0 0 367.34 56.82">
  <defs>
    <style>
      .cls-1 {
        fill: #ff733d;
        fill-rule: evenodd;
      }
    </style>
  </defs>
  <path id="CHANGE" class="cls-1" d="M1368.6,2203c-2.65,7.02-5.6,12.58-10.66,16.46-4.99,3.88-11.85,5.94-22.14,5.94-10.23,0-29.09-.79-22.91-28.41s25.48-28.39,35.71-28.39c10.17,0,25.71,1.28,23.2,22.4h-19.2c0.37-3.81-.62-9.08-7.14-9.08-6.88,0-12.2,4.25-14.62,15.07s0.87,15.08,7.04,15.08c5.32,0,8.7-2.65,11.52-9.07h19.2Zm90.4-33h20l6,54h-17l-1-7h-17l-3.8,6.8-17.2.2Zm6.53,16.47h-0.12L1457,2204h9ZM1501,2170h19l11.33,29.9h0.18L1538,2170h16l-12,54h-18l-11.4-30.22h-0.12L1506,2224h-17Zm88,24h24l-6,30h-7l-1.28-5.21c-5.45,4.85-11.63,6.61-21.32,6.61-11.85,0-26.87-3.55-21.36-28.18,5.23-23.37,21.23-28.62,34.16-28.62,18.78,0,26.56,6.67,24.8,20.4h-19c0.14-2.76-.9-4.85-2.24-5.82a9.4,9.4,0,0,0-5.46-1.26c-6.88,0-12.2,4.25-14.62,15.07-2.2,9.86.82,15.08,9.19,15.08,5.51,0,9.03-3.04,11.13-7.07h-7Zm-208-24h20l-5,20h17l4-20h20l-12,54h-19l4-20h-17l-5,20h-18Zm247,0h51l-3,14h-32l-1.8,7h30.4l-2.4,12h-30.4l-1.8,7h33l-3,14h-51Z" transform="translate(-1311.66 -2168.59)"/>
</svg>
